#N canvas 1708 81 627 681 12;
#X msg 56 33 devices;
#X msg 128 65 baud 115200 \, open 4;
#X msg 194 98 close;
#X obj 56 130 comport;
#X obj 56 168 pdchoco/slip_parse;
#X obj 71 682 netsend -u -b;
#X msg 365 519 connect 127.0.0.1 8001;
#X msg 364 556 disconnect;
#X obj 57 253 list trim;
#X obj 57 203 oscparse;
#X obj 56 307 route angle light;
#X floatatom 54 424 5 0 0 0 - - - 0;
#X floatatom 118 424 5 0 0 0 - - - 0;
#X obj 55 364 nbx 5 17 -1e+37 1e+37 0 0 empty empty empty 0 -10 0 12 #fcfcfc #000000 #000000 0 256;
#X obj 126 358 nbx 5 17 -1e+37 1e+37 0 0 empty empty empty 0 -10 0 12 #fcfcfc #000000 #000000 0 256;
#X obj 51 476 oscformat -f i angle;
#X obj 204 476 oscformat -f i light;
#X connect 0 0 3 0;
#X connect 1 0 3 0;
#X connect 2 0 3 0;
#X connect 3 0 4 0;
#X connect 4 0 9 0;
#X connect 6 0 5 0;
#X connect 7 0 5 0;
#X connect 8 0 10 0;
#X connect 9 0 8 0;
#X connect 10 0 13 0;
#X connect 10 1 14 0;
#X connect 11 0 15 0;
#X connect 12 0 16 0;
#X connect 13 0 11 0;
#X connect 14 0 12 0;
#X connect 15 0 5 0;
#X connect 16 0 5 0;
