#N canvas 1473 184 627 681 12;
#X msg 56 33 devices;
#X msg 128 65 baud 115200 \, open 4;
#X msg 194 98 close;
#X obj 56 130 comport;
#X obj 56 168 pdchoco/slip_parse;
#X obj 72 611 netsend -u -b;
#X msg 366 448 connect 127.0.0.1 8001;
#X msg 365 485 disconnect;
#X obj 55 219 list trim;
#X obj 52 405 oscformat -f i beta;
#X obj 55 265 oscparse;
#X obj 56 307 route angle light;
#X floatatom 55 353 5 0 0 0 - - - 0;
#X floatatom 119 353 5 0 0 0 - - - 0;
#X obj 205 405 oscformat -f i alpha;
#X connect 0 0 3 0;
#X connect 1 0 3 0;
#X connect 2 0 3 0;
#X connect 3 0 4 0;
#X connect 4 0 8 0;
#X connect 6 0 5 0;
#X connect 7 0 5 0;
#X connect 8 0 10 0;
#X connect 9 0 5 0;
#X connect 10 0 11 0;
#X connect 11 0 12 0;
#X connect 11 1 13 0;
#X connect 12 0 9 0;
#X connect 13 0 14 0;
#X connect 14 0 5 0;
